<?xml version="1.0" encoding="UTF-8"?>
<!DOCTYPE svg PUBLIC "-//W3C//DTD SVG 1.1//EN" "http://www.w3.org/Graphics/SVG/1.1/DTD/svg11.dtd">
<!-- Creator: CorelDRAW 2021 (64-Bit) -->
<svg xmlns="http://www.w3.org/2000/svg" xml:space="preserve" width="30mm" height="10mm" version="1.1" style="shape-rendering:geometricPrecision; text-rendering:geometricPrecision; image-rendering:optimizeQuality; fill-rule:evenodd; clip-rule:evenodd"
viewBox="0 0 3000 1000"
 xmlns:xlink="http://www.w3.org/1999/xlink"
 xmlns:xodm="http://www.corel.com/coreldraw/odm/2003">
 <defs>
  <style type="text/css">
   <![CDATA[
    .fil0 {fill:url(#id0)}
    .fil1 {fill:url(#id1);fill-rule:nonzero}
   ]]>
  </style>
  <linearGradient id="id0" gradientUnits="userSpaceOnUse" x1="290.03" y1="508" x2="2695.95" y2="508">
   <stop offset="0" style="stop-opacity:1; stop-color:#FFF7B8"/>
   <stop offset="0.231373" style="stop-opacity:1; stop-color:#C09947"/>
   <stop offset="0.411765" style="stop-opacity:1; stop-color:#E9C577"/>
   <stop offset="0.588235" style="stop-opacity:1; stop-color:#9E6F06"/>
   <stop offset="0.768627" style="stop-opacity:1; stop-color:#FFFFBD"/>
   <stop offset="1" style="stop-opacity:1; stop-color:#E5C98D"/>
  </linearGradient>
  <linearGradient id="id1" gradientUnits="userSpaceOnUse" xlink:href="#id0" x1="93.23" y1="507.99" x2="2892.78" y2="507.99">
  </linearGradient>
 </defs>
 <g id="Layer_x0020_1">
  <metadata id="CorelCorpID_0Corel-Layer"/>
  <path class="fil0" d="M1815.58 427.31c-31.06,0 -56.23,-9.83 -75.49,-29.49 -19.27,-19.65 -28.94,-44.59 -28.94,-74.7 0,-28.78 9.83,-53.32 29.49,-73.68 19.66,-20.29 44.43,-30.44 74.4,-30.44 16.91,0 31.28,2.2 43.17,6.77 11.87,4.48 23.27,11.32 34.2,20.52l-22.41 26.82c-8.42,-7.32 -16.91,-12.74 -25.49,-16.28 -8.48,-3.54 -18.87,-5.35 -30.9,-5.35 -18.39,0 -33.89,7 -46.48,21 -12.57,13.99 -18.87,30.9 -18.87,50.64 0,20.92 6.37,38.14 19.03,51.66 12.67,13.53 29.11,20.29 49.46,20.29 18.8,0 35,-5.11 48.61,-15.26l0 -37.67 -51.51 0 0 -30.82 85.79 0 0 84.62c-24.38,20.91 -52.37,31.37 -84.06,31.37l0 0zm-1239.89 272.01c-85.08,0 -153.96,-26.9 -206.73,-80.68 -52.77,-53.79 -79.19,-121.97 -79.19,-204.38 0,-78.72 26.97,-145.96 80.75,-201.62 53.8,-55.61 121.67,-83.45 203.6,-83.45 46.17,0 85.57,6.14 118.12,18.49 32.56,12.34 63.77,31.14 93.73,56.3l-61.41 73.29c-23.12,-19.98 -46.4,-34.83 -69.76,-44.5 -23.36,-9.75 -51.59,-14.63 -84.61,-14.63 -50.4,0 -92.79,19.19 -127.24,57.56 -34.36,38.3 -51.59,84.54 -51.59,138.56 0,57.25 17.38,104.36 51.98,141.39 34.68,37.04 79.82,55.52 135.49,55.52 51.44,0 95.79,-13.92 133.07,-41.75l0 -103.17 -140.92 0 0 -84.23 168.28 0c22.02,-17.46 45.06,-31.53 69.13,-42.07 33.34,-14.7 73.92,-22.09 121.65,-22.09 82.41,0 150.43,27.6 203.98,82.72 53.56,55.13 80.37,122.6 80.37,202.42 0,80.28 -26.81,147.92 -80.37,202.73 -53.55,54.89 -120.23,82.33 -200.05,82.33 -48.84,0 -90.51,-8.17 -125.19,-24.45 -34.69,-16.2 -67.47,-40.66 -98.45,-73.21l62.19 -63c25.71,24.14 50.65,42.16 74.87,53.94 24.14,11.8 51.97,17.7 83.44,17.7 51.98,0 95.3,-19.03 129.98,-57.09 34.61,-38.06 51.99,-84.38 51.99,-138.95 0,-55.13 -17.22,-101.61 -51.6,-139.43 -34.43,-37.82 -77.85,-56.69 -130.37,-56.69 -43.1,0 -84.78,14.78 -125.2,44.35l0 162.3c-66.69,57.26 -143.35,85.8 -229.94,85.8l0 -0.01zm788.43 -571.38l55.37 0 0 750.67 -55.37 0 0 -750.67zm650.34 269.17c13.75,0 24.92,-4.72 33.34,-14.15 8.49,-9.36 12.66,-21 12.66,-34.76 0,-13.69 -4.4,-25.24 -13.21,-34.68 -8.81,-9.51 -19.98,-14.24 -33.34,-14.24 -13.69,0 -24.69,4.65 -33.11,14.08 -8.49,9.36 -12.66,21 -12.66,34.84 0,13.37 4.4,24.92 13.21,34.52 8.81,9.6 19.9,14.39 33.11,14.39zm-0.55 30.2c-23.04,0 -42.23,-7.71 -57.56,-23.04 -15.34,-15.33 -23.05,-34.05 -23.05,-56.07 0,-22.09 7.79,-40.81 23.28,-56.3 15.57,-15.41 34.84,-23.12 57.88,-23.12 22.96,0 42.22,7.63 57.64,22.96 15.49,15.41 23.2,34.21 23.2,56.46 0,21.86 -7.79,40.5 -23.28,55.91 -15.57,15.49 -34.92,23.2 -58.12,23.2l0.01 0zm118.82 -3.46l0 -210.04 34.76 0 0 210.04 -34.76 0zm120.39 -40.58c8.5,9.05 18.87,13.53 30.91,13.53 12.11,0 22.49,-4.64 31.06,-13.84 8.64,-9.2 12.98,-21 12.98,-35.39 0,-14.16 -4.33,-25.79 -12.98,-34.91 -8.57,-9.13 -18.95,-13.69 -31.06,-13.69 -12.27,0 -22.65,4.48 -31.06,13.36 -8.42,8.9 -12.67,20.85 -12.67,35.87 0,14.39 4.25,26.02 12.82,35.07zm22.57 43.72c-18.95,0 -35.46,-7.15 -49.46,-21.38 -14,-14.31 -21,-33.67 -21,-58.04 0,-24.15 6.93,-43.33 20.84,-57.57 13.92,-14.15 30.43,-21.22 49.62,-21.22 20.76,0 37.98,8.88 51.82,26.74l0 -81.71 34.84 0 0 210.03 -34.84 0 0 -25.32c-13.45,18.96 -30.74,28.47 -51.82,28.47zm-462.08 323.13c-29.16,0 -53.54,-9.99 -73.12,-30.04 -19.51,-20.05 -29.34,-44.75 -29.34,-74.08 0,-29.18 9.83,-53.79 29.34,-74 19.58,-20.13 44.42,-30.19 74.55,-30.19 17.45,0 32.31,2.68 44.43,8.1 12.18,5.35 23.67,13.13 34.44,23.28l-22.73 26.18c-18.08,-16.67 -36.88,-25 -56.46,-25 -19.18,0 -34.99,6.84 -47.58,20.68 -12.57,13.84 -18.86,30.83 -18.86,50.96 0,19.89 6.37,36.88 19.02,50.8 12.67,13.84 28.47,20.83 47.42,20.83 11.56,0 21.71,-2.2 30.51,-6.44 8.9,-4.33 17.93,-10.93 27.38,-19.74l22.72 23.04c-11.33,11.87 -23.28,20.76 -35.93,26.73 -12.67,5.98 -27.93,8.89 -45.78,8.89l-0.01 0zm208.63 -58.43l0 -8.57c-10.38,-4.01 -22.01,-6.05 -34.84,-6.05 -10.93,0 -19.49,2.12 -25.62,6.29 -6.14,4.25 -9.22,10.23 -9.22,17.85 0,6.92 2.84,12.43 8.35,16.44 5.58,4 12.57,6.05 20.99,6.05 11.72,0 21.39,-2.99 28.95,-8.96 7.54,-5.9 11.39,-13.61 11.39,-23.04l0 -0.01zm33.66 54.97l-34.52 0 0 -18.64c-12.35,14.55 -28.7,21.86 -49.23,21.86 -15.18,0 -27.99,-4.17 -38.46,-12.5 -10.44,-8.41 -15.64,-20.05 -15.64,-34.99 0,-16.29 5.66,-28.71 16.98,-37.12 11.33,-8.41 26.19,-12.66 44.59,-12.66 14.78,0 28.79,2.12 42,6.29l0 -2.84c0,-10.53 -3.23,-18.64 -9.6,-24.21 -6.45,-5.51 -15.72,-8.34 -27.76,-8.34 -13.84,0 -28.31,3.22 -43.48,9.51l-9.52 -27.91c18.8,-8.42 38.14,-12.67 57.88,-12.67 22.01,0 38.69,5.59 49.94,16.68 11.17,11.16 16.83,26.97 16.83,47.5l0 90.03 -0.01 0.01zm119.69 -27.05c12.27,0 22.56,-4.48 30.91,-13.52 8.33,-8.97 12.5,-20.85 12.5,-35.63 0,-14.39 -4.17,-26.11 -12.66,-35.16 -8.42,-8.96 -18.64,-13.52 -30.75,-13.52 -12.11,0 -22.5,4.64 -31.22,13.84 -8.73,9.2 -13.14,21 -13.14,35.39 0,14.23 4.41,25.87 13.14,34.99 8.72,9.13 19.11,13.61 31.22,13.61zm-78.25 73.13l0 -198.01 34.76 0 0 25.33c13.44,-18.95 30.67,-28.47 51.51,-28.47 19.18,0 35.77,7.15 49.78,21.47 13.99,14.31 21.07,33.58 21.07,57.95 0,23.99 -7.08,43.1 -21.07,57.41 -14.01,14.31 -30.6,21.47 -49.78,21.47 -20.84,0 -38.07,-8.96 -51.51,-26.81l0 69.67 -34.76 0 0 -0.01zm194.79 -46.08l0 -151.93 34.84 0 0 151.93 -34.84 0zm-1.41 -175.21l0 -33.1 37.35 0 0 33.1 -37.35 0zm132.57 177.81c-29.09,0 -43.71,-14.86 -43.71,-44.59l0 -79.98 -19.28 0 0 -29.96 19.28 0 0 -41.68 34.83 0 0 41.68 40.81 0 0 29.96 -40.81 0 0 74.55c0,12.67 6.21,18.95 18.71,18.95 7.48,0 14.63,-1.72 21.56,-5.18l0 28.54c-9.21,5.11 -19.67,7.71 -31.39,7.71zm160.9 -57.57l0 -8.57c-10.38,-4.01 -22.02,-6.05 -34.83,-6.05 -10.93,0 -19.51,2.12 -25.65,6.29 -6.13,4.25 -9.19,10.23 -9.19,17.85 0,6.92 2.83,12.43 8.34,16.44 5.58,4 12.58,6.05 21,6.05 11.7,0 21.38,-2.99 28.93,-8.96 7.62,-5.9 11.4,-13.61 11.4,-23.04l0 -0.01zm33.66 54.97l-34.52 0 0 -18.64c-12.28,14.55 -28.71,21.86 -49.23,21.86 -15.18,0 -28,-4.17 -38.45,-12.5 -10.38,-8.41 -15.65,-20.05 -15.65,-34.99 0,-16.29 5.66,-28.71 16.98,-37.12 11.32,-8.41 26.19,-12.66 44.59,-12.66 14.79,0 28.78,2.12 41.99,6.29l0 -2.84c0,-10.53 -3.14,-18.64 -9.59,-24.21 -6.45,-5.51 -15.73,-8.34 -27.76,-8.34 -13.85,0 -28.31,3.22 -43.49,9.51l-9.5 -27.91c18.79,-8.42 38.12,-12.67 57.87,-12.67 22.02,0 38.69,5.59 49.93,16.68 11.17,11.16 16.83,26.97 16.83,47.5l0 90.03 0 0.01zm43.4 0l0 -210.04 34.84 0 0 210.04 -34.84 0z"/>
  <path class="fil1" d="M266.34 8l2463.96 0 162.63 157.18 0 685.64 -162.63 157.18 -2474.73 0 -162.63 -157.18 0 -685.64 162.63 -157.18 10.77 0zm2442.42 50.26l-2431.65 0 -132.17 127.74 0 644 132.17 127.74 2431.65 0 132.17 -127.74 0 -644 -132.17 -127.74z"/>
 </g>
</svg>
